<?xml version="1.0" encoding="utf-8"?>
<!-- Generator: Adobe Illustrator 24.2.0, SVG Export Plug-In . SVG Version: 6.00 Build 0)  -->
<svg version="1.1" id="Layer_1" xmlns="http://www.w3.org/2000/svg" xmlns:xlink="http://www.w3.org/1999/xlink" x="0px" y="0px"
	 viewBox="0 0 24 24" style="enable-background:new 0 0 24 24;" xml:space="preserve">
<desc>Created with Sketch.</desc>
<g>
	<path d="M20,14c-0.6,0-1,0.4-1,1v3c0,0.5-0.4,1-1,1H6c-0.5,0-1-0.4-1-1V6c0-0.5,0.4-1,1-1h3c0.6,0,1-0.4,1-1S9.6,3,9,3H6
		C4.3,3,3,4.3,3,6v12c0,1.7,1.3,3,3,3h12c1.7,0,3-1.3,3-3v-3C21,14.4,20.6,14,20,14z"/>
	<path d="M20,3h-7c-0.6,0-1,0.4-1,1s0.4,1,1,1h4.6l-6.3,6.3c-0.4,0.4-0.4,1,0,1.4c0.2,0.2,0.5,0.3,0.7,0.3s0.5-0.1,0.7-0.3L19,6.4
		V11c0,0.6,0.4,1,1,1s1-0.4,1-1V4C21,3.4,20.6,3,20,3z"/>
</g>
</svg>
