<?xml version="1.0" encoding="utf-8"?>
<!-- Generator: Adobe Illustrator 24.2.0, SVG Export Plug-In . SVG Version: 6.00 Build 0)  -->
<svg version="1.1" id="Layer_1" xmlns="http://www.w3.org/2000/svg" xmlns:xlink="http://www.w3.org/1999/xlink" x="0px" y="0px"
	 viewBox="0 0 186.66 192.58" style="enable-background:new 0 0 186.66 192.58;" xml:space="preserve">
<path d="M178.68,52.63c-5.97-0.07-11.95-0.01-18.11-0.01c-2.43-11.96-4.73-23.53-7.15-35.08c-1.73-8.25-6.77-13.96-14.42-14.55
	c-18.25-1.4-36.54-2.69-54.83-2.98C73.24-0.16,62.28,1.7,51.32,2.54C40.66,3.36,35.28,7.92,33.11,18.33
	c-2.37,11.35-4.69,22.71-7.07,34.29c-6.39,0-12.37-0.07-18.35,0.02C1.89,52.72,0,54.89,0,61.17c0,6.3,1.87,8.46,7.65,8.54
	c5.49,0.08,10.98,0.02,17.39,0.02c-0.65,6.51,3.76,12.73-2.12,18.28c-1.11,1.05-1.41,3.47-1.3,5.2c0.72,11.62,2.7,22.82,11.17,31.79
	c1.28,1.35,1.86,3.42,2.59,5.23c4.7,11.71,8.32,23.98,14.24,35.03c12.4,23.17,30.12,30.77,56.06,25.93
	c13.93-2.6,23.55-11.35,29.67-23.18c6.3-12.18,10.72-25.33,15.97-38.06c0.62-1.51,0.95-3.36,2.03-4.43
	c6.09-6.02,9.08-13.52,10.42-21.69c1.1-6.75,3.61-13.9-2.97-19.6c-0.38-0.33-0.38-1.28-0.31-1.91c0.45-4.09,0.97-8.17,1.5-12.59
	c5.85,0,11.32,0.05,16.8-0.01c5.94-0.07,7.83-2.14,7.87-8.34C186.69,54.84,184.8,52.7,178.68,52.63z M141.26,137.19
	c-5.03,10.81-9.54,21.98-15.75,32.09c-6.49,10.56-16.86,14.58-29.63,15.35c-19.81,1.2-32.51-7.83-40.74-24.45
	c-5.06-10.21-8.94-21.01-13.95-32.97c20.25,2.97,32.54-5.77,41.46-21.03c0.68,6.33,1.46,12.02-3.08,17.2
	c-3.46,3.95-1.48,9.31,3.21,10.1c1.17,0.2,2.53-0.79,3.81-1.24c-0.65-0.93-1.12-2.39-2-2.71c-3.44-1.25-1.88-2.81-0.92-4.96
	c1.64-3.66,3.22-7.49,3.87-11.41c0.78-4.72,0.01-9.72,0.95-14.39c0.61-3.04,3.07-8.07,4.73-8.08c4.46-0.04,4.69,4.79,5.1,8.32
	c0.5,4.28,0.04,8.71,0.78,12.93c0.74,4.27,2.17,8.48,3.83,12.5c0.97,2.36,2.63,4.11-1.25,5.18c-0.73,0.2-1.13,1.64-1.68,2.51
	c1.09,0.51,2.21,1.51,3.26,1.45c4.98-0.32,7.45-5.98,3.88-10.09c-4.53-5.21-3.76-10.93-3.21-17.27
	c9.06,14.97,21.15,24.08,40.26,21.12C143.11,131.1,142.59,134.34,141.26,137.19z M152.51,84.15c-0.18,0.95-3.09,1.96-4.74,1.97
	c-14.81,0.15-29.62,0.09-44.44,0.09c-21.47,0-42.94-0.1-64.41,0.09c-3.89,0.03-5.34-1.25-5.51-5.01c-0.21-4.62-0.84-9.22-1.34-14.36
	c41.12,0,81.35,0,122.53,0C153.96,72.84,153.56,78.55,152.51,84.15z"/>
<path d="M93.34,151.62c-5.83,0-11.67-0.12-17.49,0.1c-1.14,0.04-2.24,1.36-3.36,2.09c1.1,0.72,2.2,2.06,3.32,2.08
	c11.66,0.15,23.33,0.15,34.99,0c1.13-0.01,2.24-1.33,3.35-2.04c-1.1-0.74-2.19-2.08-3.32-2.12
	C105.01,151.5,99.18,151.62,93.34,151.62z"/>
<path d="M67.28,135.08c-0.74,0.75-2.08,1.49-2.12,2.25c-0.22,3.96-0.1,7.92-0.1,11.88c0,3.96-0.12,7.93,0.1,11.88
	c0.04,0.78,1.36,1.52,2.09,2.28c0.72-0.75,2.06-1.5,2.08-2.25c0.15-7.92,0.15-15.85,0-23.77C69.31,136.59,67.99,135.84,67.28,135.08
	z"/>
<path d="M119.49,135.08c-0.74,0.75-2.08,1.49-2.12,2.25c-0.22,3.96-0.1,7.92-0.1,11.88c0,3.96-0.12,7.93,0.1,11.88
	c0.04,0.78,1.36,1.52,2.09,2.28c0.72-0.75,2.06-1.5,2.08-2.25c0.15-7.92,0.15-15.85,0-23.77
	C121.52,136.59,120.2,135.84,119.49,135.08z"/>
<path d="M109.45,148.05c0.04,0.4,1.36,0.78,2.09,1.17c0.72-0.38,2.06-0.77,2.08-1.15c0.15-4.06,0.15-8.13,0-12.19
	c-0.01-0.39-1.33-0.78-2.04-1.17c-0.74,0.38-2.08,0.76-2.12,1.16c-0.22,2.03-0.1,4.06-0.1,6.09
	C109.35,143.99,109.24,146.02,109.45,148.05z"/>
<path d="M103.09,148.05c0.04,0.4,1.36,0.78,2.09,1.17c0.72-0.38,2.06-0.77,2.08-1.15c0.15-4.06,0.15-8.13,0-12.19
	c-0.01-0.39-1.33-0.78-2.04-1.17c-0.74,0.38-2.08,0.76-2.12,1.16c-0.22,2.03-0.1,4.06-0.1,6.09
	C102.99,143.99,102.88,146.02,103.09,148.05z"/>
<path d="M96.63,148.05c0.04,0.4,1.36,0.78,2.09,1.17c0.72-0.38,2.06-0.77,2.08-1.15c0.15-4.06,0.15-8.13,0-12.19
	c-0.01-0.39-1.33-0.78-2.04-1.17c-0.74,0.38-2.08,0.76-2.12,1.16c-0.22,2.03-0.1,4.06-0.1,6.09
	C96.53,143.99,96.42,146.02,96.63,148.05z"/>
<path d="M91.24,148.05c0.04,0.4,1.36,0.78,2.09,1.17c0.72-0.38,2.06-0.77,2.08-1.15c0.15-4.06,0.15-8.13,0-12.19
	c-0.01-0.39-1.33-0.78-2.04-1.17c-0.74,0.38-2.08,0.76-2.12,1.16c-0.22,2.03-0.1,4.06-0.1,6.09
	C91.14,143.99,91.02,146.02,91.24,148.05z"/>
<path d="M85.4,148.05c0.04,0.4,1.36,0.78,2.09,1.17c0.72-0.38,2.06-0.77,2.08-1.15c0.15-4.06,0.15-8.13,0-12.19
	c-0.01-0.39-1.33-0.78-2.04-1.17c-0.74,0.38-2.08,0.76-2.12,1.16c-0.22,2.03-0.1,4.06-0.1,6.09
	C85.3,143.99,85.19,146.02,85.4,148.05z"/>
<path d="M78.98,148.05c0.04,0.4,1.36,0.78,2.09,1.17c0.72-0.38,2.06-0.77,2.08-1.15c0.15-4.06,0.15-8.13,0-12.19
	c-0.01-0.39-1.33-0.78-2.04-1.17c-0.74,0.38-2.08,0.76-2.12,1.16c-0.22,2.03-0.1,4.06-0.1,6.09
	C78.88,143.99,78.77,146.02,78.98,148.05z"/>
<path d="M72.62,148.05c0.04,0.4,1.36,0.78,2.09,1.17c0.72-0.38,2.06-0.77,2.08-1.15c0.15-4.06,0.15-8.13,0-12.19
	c-0.01-0.39-1.33-0.78-2.04-1.17c-0.74,0.38-2.08,0.76-2.12,1.16c-0.22,2.03-0.1,4.06-0.1,6.09
	C72.52,143.99,72.41,146.02,72.62,148.05z"/>
</svg>
