<?xml version="1.0" encoding="utf-8"?>
<!-- Generator: Adobe Illustrator 24.2.0, SVG Export Plug-In . SVG Version: 6.00 Build 0)  -->
<svg version="1.1" id="Layer_1" xmlns="http://www.w3.org/2000/svg" xmlns:xlink="http://www.w3.org/1999/xlink" x="0px" y="0px"
	 viewBox="0 0 24 24" style="enable-background:new 0 0 24 24;" xml:space="preserve">
<desc>Created with Sketch.</desc>
<g>
	<path d="M20,9h-2V7c0-3.3-2.7-6-6-6S6,3.7,6,7v2H4c-1.1,0-2,0.9-2,2v10c0,1.1,0.9,2,2,2h16c1.1,0,2-0.9,2-2V11C22,9.9,21.1,9,20,9z
		 M8,7c0-2.2,1.8-4,4-4c2.2,0,4,1.8,4,4v2H8V7z M20,21H4l0-10h0h16V21z"/>
	<path d="M11,16.7V18c0,0.6,0.4,1,1,1s1-0.4,1-1v-1.3c0.6-0.3,1-1,1-1.7c0-1.1-0.9-2-2-2s-2,0.9-2,2C10,15.7,10.4,16.4,11,16.7z"/>
</g>
</svg>
