<?xml version="1.0" encoding="utf-8"?>
<!-- Generator: Adobe Illustrator 24.2.0, SVG Export Plug-In . SVG Version: 6.00 Build 0)  -->
<svg version="1.1" id="Layer_1" xmlns="http://www.w3.org/2000/svg" xmlns:xlink="http://www.w3.org/1999/xlink" x="0px" y="0px"
	 viewBox="0 0 390.6 275.41" style="enable-background:new 0 0 390.6 275.41;" xml:space="preserve">
<style type="text/css">
	.st0{fill:url(#SVGID_1_);stroke:#FFFFFF;stroke-miterlimit:10;}
	.st1{fill:url(#SVGID_2_);stroke:#FFFFFF;stroke-miterlimit:10;}
	.st2{fill:#FFFFFF;}
</style>
<linearGradient id="SVGID_1_" gradientUnits="userSpaceOnUse" x1="135.9722" y1="135.9722" x2="3.6553" y2="3.6553">
	<stop  offset="0" style="stop-color:#093C33"/>
	<stop  offset="1" style="stop-color:#056B2C"/>
</linearGradient>
<rect x="3.66" y="3.66" class="st0" width="132.32" height="132.32"/>
<linearGradient id="SVGID_2_" gradientUnits="userSpaceOnUse" x1="271.9619" y1="271.7556" x2="139.645" y2="139.4387">
	<stop  offset="0" style="stop-color:#093C33"/>
	<stop  offset="1" style="stop-color:#056B2C"/>
</linearGradient>
<rect x="139.65" y="139.44" class="st1" width="132.32" height="132.32"/>
<g>
	<path class="st2" d="M139.65,135.78h132.32c2.44,0.31,3.66,1.52,3.66,3.66v132.32c-0.31,2.44-1.52,3.66-3.66,3.66H139.65
		c-2.44-0.3-3.66-1.52-3.66-3.66V139.44C136.29,137,137.51,135.78,139.65,135.78z M139.65,139.44v132.32h132.32V139.44H139.65z
		 M149.51,144.19h0.37c2.44,0.3,3.66,1.52,3.66,3.65h-1.83c-0.85-0.97-1.71-1.46-2.56-1.46h-0.73c-0.73,0-1.34,1.1-1.83,3.29v0.37
		c0.97-0.97,2.31-1.46,4.02-1.46c2.19,0.61,3.29,2.32,3.29,5.12c0,2.56-1.58,4.02-4.75,4.39c-3.41,0-5.12-2.31-5.12-6.95
		C144.03,146.51,145.86,144.19,149.51,144.19z M149.15,253.85h0.37c2.68,0.49,4.02,1.71,4.02,3.66c0,0.85-0.49,1.83-1.46,2.92v0.37
		c1.22,0,1.83,0.85,1.83,2.56c0,2.92-1.58,4.39-4.75,4.39h-0.37c-3.17-0.37-4.75-1.83-4.75-4.39v-0.73h2.56
		c0,1.64,0.49,2.62,1.46,2.92h1.83c0.37,0,0.85-0.49,1.46-1.46v-1.46c-0.31-0.97-1.4-1.46-3.29-1.46v-1.83
		c1.95,0,2.92-0.37,2.92-1.1v-1.1c0-0.37-0.37-0.73-1.1-1.1h-1.46c-0.79,0-1.28,0.85-1.46,2.56h-2.56
		C144.4,255.43,145.98,253.85,149.15,253.85z M146.96,152.23v2.19c0,0.37,0.49,0.85,1.46,1.46h1.46c0.97-0.43,1.46-1.28,1.46-2.56
		c0-1.34-0.49-2.19-1.46-2.56h-1.46C148.05,150.77,147.56,151.26,146.96,152.23z M159.38,144.19c3.41,0,5.12,2.19,5.12,6.58
		c0,4.87-1.83,7.31-5.48,7.31h-0.37c-2.44-0.49-3.66-1.71-3.66-3.66h2.56c0.12,0.97,0.49,1.46,1.1,1.46h0.37
		c1.95,0,2.92-1.34,2.92-4.02c-0.98,0.97-2.32,1.46-4.02,1.46c-2.19-0.73-3.29-2.31-3.29-4.75
		C154.63,146.02,156.21,144.56,159.38,144.19z M159.38,254.21h2.19v13.16h-2.56v-8.41h-3.29v-2.19
		C158.16,256.77,159.38,255.92,159.38,254.21z M184.97,174.53c7.61,0,14.07,3.17,19.37,9.5c2.44,3.84,3.66,7.25,3.66,10.23h-11.7
		c0-2.74-2.32-5.67-6.94-8.77c-2.86-0.49-4.69-0.73-5.48-0.73c-6.94,0-11.58,4.14-13.89,12.43c-0.49,1.95-0.73,4.27-0.73,6.95
		c0,8.53,2.92,14.25,8.77,17.18c2.19,0.97,4.26,1.46,6.21,1.46c7.13,0,11.51-3.17,13.16-9.5l0.37-2.56h-12.43v-9.14h23.76v30.34
		h-8.04l-1.1-6.58c-4.51,5.12-9.63,7.68-15.35,7.68c-13.83,0-22.84-7.19-27.05-21.57c-0.49-3.05-0.73-5.73-0.73-8.04
		c0-12.73,5.73-21.75,17.18-27.05C176.8,175.38,180.46,174.77,184.97,174.53z M157.19,148.94c0,0.98,0.49,1.71,1.46,2.19h1.46
		c0.37,0,0.85-0.49,1.46-1.46v-1.83c0-0.37-0.49-0.85-1.46-1.46h-1.46C157.68,146.75,157.19,147.6,157.19,148.94z M165.96,154.79
		h2.92v2.92h-2.92V154.79z M170.35,144.56h9.14v2.19c-2.92,3.23-4.39,6.88-4.39,10.96h-2.56c0-3.04,1.34-6.58,4.02-10.6h-6.21
		V144.56z M187.16,144.19c2.68,0.49,4.02,1.83,4.02,4.02v0.37c0,1.83-1.71,3.78-5.12,5.85l-0.73,1.1h5.85v2.19h-9.5v-0.37
		c0-1.64,2.19-4.2,6.58-7.68c0.24-0.43,0.37-0.91,0.37-1.46v-0.37c0-0.37-0.49-0.85-1.46-1.46c-1.71,0-2.56,1.1-2.56,3.29h-2.56
		v-0.37C182.04,145.9,183.75,144.19,187.16,144.19z M197.03,144.19h0.37c2.68,0.49,4.02,1.71,4.02,3.65c0,0.85-0.49,1.83-1.46,2.92
		v0.37c1.22,0,1.83,0.85,1.83,2.56c0,2.92-1.58,4.39-4.75,4.39h-0.37c-3.17-0.37-4.75-1.83-4.75-4.39v-0.73h2.56
		c0,1.65,0.49,2.62,1.46,2.92h1.83c0.37,0,0.85-0.49,1.46-1.46v-1.46c-0.31-0.97-1.4-1.46-3.29-1.46v-1.83
		c1.95,0,2.92-0.37,2.92-1.1v-1.1c0-0.37-0.37-0.73-1.1-1.1h-1.46c-0.79,0-1.28,0.85-1.46,2.56h-2.56
		C192.28,145.77,193.86,144.19,197.03,144.19z M233.95,190.25c11.7,0,17.54,4.14,17.54,12.43v20.83c0,4.14,0.49,6.95,1.46,8.41
		h-10.97c-0.73-0.18-1.1-1.16-1.1-2.92v-0.73h-0.37c-3.78,3.17-8.16,4.75-13.16,4.75c-9.26-0.97-13.89-4.26-13.89-9.87
		c-0.24-0.37-0.37-1.1-0.37-2.19c0-6.15,3.29-10.05,9.87-11.7c11.45-1.22,17.18-2.92,17.18-5.12v-1.46c0-3.41-2.44-5.12-7.31-5.12
		c-4.87,0.43-7.31,2.5-7.31,6.21h-10.97c0-5.54,2.92-9.44,8.77-11.7C226.76,190.85,230.29,190.25,233.95,190.25z M224.44,220.22
		v0.37c0,3.41,2.31,5.12,6.94,5.12c4.75,0,7.68-2.31,8.77-6.95v-6.58c-1.16,0.67-5.42,1.77-12.79,3.29
		C225.42,216.75,224.44,218.33,224.44,220.22z M258.07,168.31h1.46v9.5h-1.83v-6.21h-2.19v-1.46
		C257.22,170.14,258.07,169.53,258.07,168.31z M266.84,143.09c1.52,0,2.38,1.22,2.56,3.66c0,0.67-1.46,2.25-4.39,4.75h4.39v1.46
		h-7.31c0-1.34,1.71-3.29,5.12-5.85c0.24-0.43,0.37-0.91,0.37-1.46c0-0.37-0.37-0.73-1.1-1.1c-1.46,0-2.19,0.73-2.19,2.19h-1.83
		v-0.37C262.46,144.19,263.92,143.09,266.84,143.09z M265.75,155.52c2.19,0,3.29,0.97,3.29,2.92l-1.1,1.83
		c0.97,0.37,1.46,1.22,1.46,2.56c-0.73,1.71-1.83,2.56-3.29,2.56h-0.37c-2.19,0-3.29-1.1-3.29-3.29l1.1-1.83
		c-0.73-0.79-1.1-1.4-1.1-1.83C262.46,156.5,263.56,155.52,265.75,155.52z M265.75,167.95c2.19,0,3.29,0.98,3.29,2.92l-1.1,1.83
		c0.97,0.37,1.46,1.22,1.46,2.56c-0.73,1.71-1.83,2.56-3.29,2.56h-0.37c-2.19,0-3.29-1.1-3.29-3.29l1.1-1.83
		c-0.73-0.79-1.1-1.4-1.1-1.83C262.46,168.92,263.56,167.95,265.75,167.95z M265.75,180.38c2.19,0.18,3.29,1.04,3.29,2.56
		c-0.49,1.52-0.73,2.38-0.73,2.56c0.37,0,0.73,0.37,1.1,1.1v0.37c0,2.19-1.1,3.29-3.29,3.29c-2.44-0.24-3.66-1.34-3.66-3.29h1.83
		c0.18,1.22,0.55,1.83,1.1,1.83h1.1c0.37,0,0.73-0.37,1.1-1.1v-0.73c0-0.73-0.73-1.1-2.19-1.1v-1.46l1.83-0.37v-1.1
		c0-0.37-0.37-0.73-1.1-1.1h-0.73c-0.67,0-1.04,0.61-1.1,1.83h-1.83C262.76,181.47,263.86,180.38,265.75,180.38z M264.29,158.08v1.1
		l1.83,0.37c0.49-0.24,0.85-0.37,1.1-0.37v-1.1c0-0.37-0.37-0.73-1.1-1.1h-0.73C265.02,156.98,264.65,157.35,264.29,158.08z
		 M264.29,162.1v0.73c0,0.37,0.37,0.73,1.1,1.1h1.1c0.37,0,0.73-0.37,1.1-1.1v-0.73c0-0.37-0.37-0.73-1.1-1.1h-1.1
		C265.02,161,264.65,161.37,264.29,162.1z M264.29,170.51v1.1l1.83,0.37c0.49-0.24,0.85-0.37,1.1-0.37v-1.1
		c0-0.37-0.37-0.73-1.1-1.1h-0.73C265.02,169.41,264.65,169.78,264.29,170.51z M264.29,174.53v0.73c0,0.37,0.37,0.73,1.1,1.1h1.1
		c0.37,0,0.73-0.37,1.1-1.1v-0.73c0-0.37-0.37-0.73-1.1-1.1h-1.1C265.02,173.43,264.65,173.8,264.29,174.53z"/>
</g>
<g>
	<path class="st2" d="M3.66,0h132.32c2.44,0.31,3.66,1.52,3.66,3.66v132.32c-0.31,2.44-1.52,3.66-3.66,3.66H3.66
		c-2.44-0.3-3.66-1.52-3.66-3.66V3.66C0.3,1.22,1.52,0,3.66,0z M3.66,3.66v132.32h132.32V3.66H3.66z M13.89,8.77h2.19v8.04h1.83
		v2.19h-1.83v2.92h-2.56v-2.92H8.04v-2.56C11.76,11.33,13.71,8.77,13.89,8.77z M13.52,118.06c2.68,0.49,4.02,1.83,4.02,4.02v0.37
		c0,1.83-1.71,3.78-5.12,5.85l-0.73,1.1h5.85v2.19h-9.5v-0.37c0-1.65,2.19-4.2,6.58-7.68c0.24-0.43,0.37-0.91,0.37-1.46v-0.37
		c0-0.37-0.49-0.85-1.46-1.46c-1.71,0-2.56,1.1-2.56,3.29H8.41v-0.37C8.41,119.77,10.11,118.06,13.52,118.06z M10.23,16.81h3.29
		v-4.39C13.04,12.61,11.94,14.07,10.23,16.81z M19.37,19.01h2.92v2.92h-2.92V19.01z M28.14,8.41h1.1c2.92,0,4.39,2.32,4.39,6.94
		c0,4.63-1.46,6.94-4.39,6.94h-1.1c-2.92,0-4.39-2.31-4.39-6.94C23.76,10.72,25.22,8.41,28.14,8.41z M24.12,39.84h12.43v21.57h22.66
		V39.84h12.43v56.29H59.21V71.64H36.55v24.49H24.12V39.84z M26.32,14.26v2.19c0,2.44,0.85,3.66,2.56,3.66
		c1.46,0,2.19-1.22,2.19-3.66v-2.19c0-2.44-0.85-3.66-2.56-3.66C27.05,10.6,26.32,11.82,26.32,14.26z M38.38,8.41h1.1
		c2.92,0,4.39,2.32,4.39,6.94c0,4.63-1.46,6.94-4.39,6.94h-1.1c-2.92,0-4.39-2.31-4.39-6.94C33.99,10.72,35.46,8.41,38.38,8.41z
		 M36.55,14.26v2.19c0,2.44,0.85,3.66,2.56,3.66c1.46,0,2.19-1.22,2.19-3.66v-2.19c0-2.44-0.85-3.66-2.56-3.66
		C37.28,10.6,36.55,11.82,36.55,14.26z M50.08,8.41c2.68,0.49,4.02,1.83,4.02,4.02v0.37c0,1.83-1.71,3.78-5.12,5.85l-0.73,1.1h5.85
		v2.19h-9.5v-0.37c0-1.64,2.19-4.2,6.58-7.68c0.24-0.43,0.37-0.91,0.37-1.46v-0.37c0-0.37-0.49-0.85-1.46-1.46
		c-1.71,0-2.56,1.1-2.56,3.29h-2.56v-0.37C44.96,10.11,46.66,8.41,50.08,8.41z M60.68,8.41h0.37c2.44,0.31,3.66,1.52,3.66,3.65
		h-1.83c-0.85-0.97-1.71-1.46-2.56-1.46h-0.73c-0.73,0-1.34,1.1-1.83,3.29v0.37c0.97-0.97,2.31-1.46,4.02-1.46
		c2.19,0.61,3.29,2.32,3.29,5.12c0,2.56-1.58,4.02-4.75,4.39c-3.41,0-5.12-2.31-5.12-6.94C55.19,10.72,57.02,8.41,60.68,8.41z
		 M58.12,16.45v2.19c0,0.37,0.49,0.85,1.46,1.46h1.46c0.97-0.43,1.46-1.28,1.46-2.56c0-1.34-0.49-2.19-1.46-2.56h-1.46
		C59.21,14.99,58.73,15.47,58.12,16.45z M69.81,8.41h1.1c2.92,0,4.39,2.32,4.39,6.94c0,4.63-1.46,6.94-4.39,6.94h-1.1
		c-2.92,0-4.39-2.31-4.39-6.94C65.43,10.72,66.89,8.41,69.81,8.41z M67.99,14.26v2.19c0,2.44,0.85,3.66,2.56,3.66
		c1.46,0,2.19-1.22,2.19-3.66v-2.19c0-2.44-0.85-3.66-2.56-3.66C68.72,10.6,67.99,11.82,67.99,14.26z M81.51,8.41
		c2.68,0.49,4.02,1.83,4.02,4.02v0.37c0,1.83-1.71,3.78-5.12,5.85l-0.73,1.1h5.85v2.19h-9.5v-0.37c0-1.64,2.19-4.2,6.58-7.68
		c0.24-0.43,0.37-0.91,0.37-1.46v-0.37c0-0.37-0.49-0.85-1.46-1.46c-1.71,0-2.56,1.1-2.56,3.29h-2.56v-0.37
		C76.39,10.11,78.1,8.41,81.51,8.41z M97.23,54.46c9.02,0,15.23,4.87,18.64,14.62c0.49,2.32,0.73,4.14,0.73,5.48v3.66H87.36v0.37
		c0,5.48,2.44,8.77,7.31,9.87c0.3,0.24,1.16,0.37,2.56,0.37h0.73c5.36-1.1,8.04-2.92,8.04-5.48h9.87c0,2.56-2.07,5.85-6.21,9.87
		c-3.23,2.68-7.62,4.02-13.16,4.02c-11.57,0-18.4-6.58-20.47-19.74V75.3c0-10.29,5.48-17.12,16.45-20.47
		C94.55,54.58,96.13,54.46,97.23,54.46z M87.36,71.28h18.28c-1.4-5.36-3.72-8.04-6.94-8.04c0-0.24-0.73-0.37-2.19-0.37h-0.73
		C90.16,63.84,87.36,66.65,87.36,71.28z M130.85,7.31c1.52,0,2.38,1.22,2.56,3.66c0,0.67-1.46,2.25-4.39,4.75h4.39v1.46h-7.31
		c0-1.34,1.71-3.29,5.12-5.85c0.24-0.43,0.37-0.91,0.37-1.46c0-0.37-0.37-0.73-1.1-1.1c-1.46,0-2.19,0.73-2.19,2.19h-1.83V10.6
		C126.47,8.41,127.93,7.31,130.85,7.31z"/>
</g>
<g>
	<path class="st2" d="M153.54,54.98c2.71,0.7,4.06,1.51,4.06,2.44c0,2.71-0.81,4.06-2.44,4.06v1.63h1.62v29.3
		c0,1.47,0.54,3.1,1.62,4.87h-8.12l-1.62-0.81l0.81-1.62V78.6c0-7.43,0.81-12.05,2.44-13.87v-2.44c0-1.28-1.9-2.63-5.69-4.06
		C146.23,57.11,148.67,56.03,153.54,54.98z M151.92,38.73h1.62c0.77,0,1.59,0.81,2.44,2.44v1.62c0,1.08-0.54,1.62-1.62,1.62h-2.44
		c-0.39,0-1.2-0.81-2.44-2.44C150.29,39.82,151.1,38.73,151.92,38.73z"/>
	<path class="st2" d="M178.14,55.16h2.44v0.81l-6.21,1.74v0.81l9.52,0.7l1.62-0.81c1.04,0.54,1.86,0.81,2.44,0.81V58.4
		c0-1.08-1.08-1.63-3.25-1.63v-0.81h2.44c3.6,0,7.14,3.27,10.62,9.81h-9.81c-2.9-2.17-5.36-3.25-7.37-3.25h-1.62
		c-4.06,0.66-6.23,1.74-6.5,3.25c-2.9,4.6,2.8,7.04,17.12,7.31c7.31,2.48,10.58,5.47,9.81,8.99c-2.28,9.79-7.18,14.68-14.68,14.68
		h-0.81v-0.81c4.87-1.08,7.31-3.54,7.31-7.37c-4.87,1.12-8.41,1.68-10.62,1.68h-4.06c-3.87,0-6.87-0.56-8.99-1.68v0.81
		c0,1.12,1.92,3.31,5.74,6.56h-0.81c-3.4,0-6.4-3.54-8.99-10.62l2.44-1.63h0.81c6,2.17,9.26,3.25,9.81,3.25h1.62
		c4.6,0,8.55-1.26,11.84-3.77c0.93-3.06-3.19-5.01-12.36-5.86c-11.3-1.82-16.56-4.31-15.78-7.49
		C164.47,60.05,169.9,55.16,178.14,55.16z"/>
	<path class="st2" d="M222.13,55.21h3.37c9.9,0,14.85,6.34,14.85,19.03c-0.97,0.54-2.07,0.81-3.31,0.81h-11.55
		c-8.86,0-13.29,0.83-13.29,2.5c0,5.3,4.14,8.61,12.42,9.92h1.68c0.58,0,3.89-1.1,9.92-3.31h0.81c0.81,0,1.64,0.83,2.5,2.5
		c-2.86,6.61-6.17,9.92-9.92,9.92c3.87-3.02,5.8-5.49,5.8-7.43c-2.17,1.12-5.2,1.68-9.11,1.68h-4.18
		c-4.56-0.58-8.41-0.87-11.55-0.87c0,2.28,2.75,4.49,8.24,6.61v0.87h-2.44c-7.39,0-12.09-6.63-14.1-19.9
		c0-12.19,4.97-19.36,14.91-21.53h0.81v0.87c-2.21,0-3.31,0.54-3.31,1.62v0.81h0.81l1.68-0.81l1.62,0.81
		c4.72-1.08,7.49-1.62,8.3-1.62V56.9l-4.99-0.87V55.21z M213.89,70.13l1.63,0.81h14.1l2.5-1.62c-1.51-4.45-4.27-6.67-8.3-6.67h-1.68
		C216.63,63.42,213.89,65.91,213.89,70.13z"/>
	<path class="st2" d="M269.48,54.92c8.78,0,13.17,6.03,13.17,18.1v14.04c0,4.64,0.83,7.93,2.5,9.86h-9.92l3.31-4.12
		c0-0.89-1.92-1.99-5.74-3.31c-0.54-0.97-0.81-2.07-0.81-3.31V65.66c-0.58-1.66-2.24-2.5-4.99-2.5
		c-7.12,1.16-10.68,4.74-10.68,10.73c-0.54,8.12-0.81,13.6-0.81,16.42c-2.21,0-3.31,0.56-3.31,1.68v1.62c0,1.12,0.83,1.68,2.5,1.68
		v1.63h-10.73c2.21-2.28,3.31-5.03,3.31-8.24V66.47l-0.81-1.68h0.81c-0.7-3.4-1.8-6.15-3.31-8.24h3.31c2.75,0,5.49,1.93,8.24,5.8
		c0,2.2,0.54,3.31,1.62,3.31c2.94-3.25,8.43-5.45,16.48-6.61c0-1.66-2.48-2.5-7.43-2.5v-0.81
		C267.41,55.74,268.51,55.47,269.48,54.92z"/>
</g>
<g>
	<path class="st2" d="M308.21,190.71c8.16,1.35,12.24,4.89,12.24,10.62h0.81c2.9-3.21,8.36-5.38,16.36-6.5c0-1.66-2.46-2.5-7.37-2.5
		v-0.81c1.24,0,2.34-0.27,3.31-0.81c8.7,0,13.06,6,13.06,17.99v13.87c0,4.64,0.81,7.91,2.44,9.81h-9.81c0-0.31,1.08-1.66,3.25-4.06
		c0-0.89-1.9-1.99-5.69-3.31c-0.54-0.93-0.81-2.01-0.81-3.25v-20.42c-0.54-1.63-2.19-2.44-4.93-2.44c-3.13,0-6.4,1.9-9.81,5.69
		v17.99c0,4.64,0.83,7.91,2.5,9.81h-9.81c0-0.31,1.08-1.66,3.25-4.06c0-0.89-1.9-1.99-5.69-3.31c-0.54-0.93-0.81-2.01-0.81-3.25
		v-20.42c-0.58-1.63-2.22-2.44-4.93-2.44c-7.08,1.16-10.62,4.7-10.62,10.62c-0.54,8.08-0.81,13.52-0.81,16.3
		c-2.17,0-3.25,0.56-3.25,1.68v1.63c0,1.08,0.81,1.63,2.44,1.63v1.62h-10.62c2.17-2.28,3.25-5.01,3.25-8.18v-22.05l-0.81-1.63h0.81
		c-0.66-3.4-1.74-6.13-3.25-8.18h3.25c2.75,0,5.47,1.92,8.18,5.74c0,2.17,0.54,3.25,1.63,3.25c2.9-3.21,8.36-5.38,16.36-6.5
		c0-1.66-2.46-2.5-7.37-2.5v-0.81C306.2,191.52,307.28,191.26,308.21,190.71z"/>
	<path class="st2" d="M372.39,190.83h3.37c9.9,0,14.85,6.34,14.85,19.03c-0.97,0.54-2.07,0.81-3.31,0.81h-11.55
		c-8.86,0-13.29,0.83-13.29,2.5c0,5.3,4.14,8.61,12.42,9.92h1.68c0.58,0,3.89-1.1,9.92-3.31h0.81c0.81,0,1.64,0.83,2.5,2.5
		c-2.86,6.61-6.17,9.92-9.92,9.92c3.87-3.02,5.8-5.49,5.8-7.43c-2.17,1.12-5.2,1.68-9.11,1.68h-4.18
		c-4.56-0.58-8.41-0.87-11.55-0.87c0,2.28,2.75,4.49,8.24,6.61v0.87h-2.44c-7.39,0-12.09-6.63-14.1-19.9
		c0-12.19,4.97-19.36,14.91-21.53h0.81v0.87c-2.21,0-3.31,0.54-3.31,1.63v0.81h0.81l1.68-0.81l1.62,0.81
		c4.72-1.08,7.49-1.63,8.3-1.63v-0.81l-4.99-0.87V190.83z M364.15,205.74l1.63,0.81h14.1l2.5-1.62c-1.51-4.45-4.27-6.67-8.3-6.67
		h-1.68C366.89,199.03,364.15,201.52,364.15,205.74z"/>
</g>
</svg>
