<?xml version="1.0" encoding="utf-8"?>
<!-- Generator: Adobe Illustrator 24.2.0, SVG Export Plug-In . SVG Version: 6.00 Build 0)  -->
<svg version="1.1" id="Layer_1" xmlns="http://www.w3.org/2000/svg" xmlns:xlink="http://www.w3.org/1999/xlink" x="0px" y="0px"
	 viewBox="0 0 186.7 192.6" style="enable-background:new 0 0 186.7 192.6;" xml:space="preserve">
<g>
	<path d="M82.8,7c0.4,0,0.9,0,1.3,0c18.4,0.3,37,1.6,54.4,3c5.2,0.4,7.3,5.1,8.1,9c1.7,8.1,3.3,16.2,5,24.6
		c0.7,3.4,1.4,6.9,2.1,10.4l1.1,5.6h5.7c2,0,3.9,0,5.8,0c1.9,0,3.8,0,5.7,0c2.5,0,4.6,0,6.5,0c0.4,0,0.7,0,1,0
		c0,0.4,0.1,0.9,0.1,1.7c0,0.6,0,1-0.1,1.3c-0.2,0-0.5,0-0.9,0c-1.8,0-3.8,0-6.1,0c-1.7,0-3.4,0-5.1,0c-1.7,0-3.4,0-5.1,0l0,0h-7.8
		c-20.6,0-41.3,0-61.3,0.1c-19.8,0-40.2,0.1-60.6,0.1l0-0.1H25c-2,0-3.9,0-5.7,0c-1.7,0-3.4,0-5,0c-2.6,0-4.6,0-6.5,0
		c-0.3,0-0.5,0-0.7,0C7,62.3,7,61.8,7,61.2c0-0.6,0-1.1,0.1-1.5c0.2,0,0.4,0,0.7,0c2,0,4.3,0,6.9,0c1.8,0,3.6,0,5.5,0
		c1.9,0,3.9,0,5.8,0h5.7l1.1-5.6l1.6-7.7c1.9-9.1,3.6-17.8,5.5-26.6c1.5-7.3,4.3-9.7,11.9-10.2c3.8-0.3,7.6-0.7,11.2-1.1
		C69.9,7.7,76.3,7,82.8,7 M156.7,90c1.9,1.9,1.8,3.9,0.7,9.9c-0.2,0.9-0.4,1.9-0.5,2.8c-1.2,7.1-3.5,12.5-7.4,16.7l-6.4,1
		c-2,0.3-4,0.5-5.9,0.5c-11.2,0-19.7-5.6-27.3-18.3l-5.3-8.8c0-0.2-0.1-0.4-0.2-0.6c2.9,0,5.8,0,8.7,0c3.3,0,6.6,0,9.9,0
		c6.8,0,15.8,0,24.7-0.1C149.6,93.1,153.9,92.4,156.7,90 M30.1,90.4c2.1,1.9,5,2.9,8.7,2.9l0.2,0c9.1-0.1,18.7-0.1,31.3-0.1
		c3.9,0,7.9,0,11.8,0l-5.5,9.5c-7.3,12.5-15.9,18.1-27.9,18.1c-2.1,0-4.3-0.2-6.5-0.5l-4.9-0.7c-6.3-7-8-15.8-8.7-26.8
		c0-0.2,0-0.4,0-0.6C29.2,91.6,29.7,91,30.1,90.4 M82.8,0C72.3,0,61.8,1.7,51.3,2.5c-10.7,0.8-16,5.4-18.2,15.8
		C30.7,29.7,28.4,41,26,52.6c-3.9,0-7.6,0-11.3,0c-2.4,0-4.7,0-7,0C1.9,52.7,0,54.9,0,61.2c0,6.3,1.9,8.5,7.6,8.5c2.2,0,4.4,0,6.6,0
		c3.4,0,6.9,0,10.7,0c-0.6,6.5,3.8,12.7-2.1,18.3c-1.1,1.1-1.4,3.5-1.3,5.2c0.7,11.6,2.7,22.8,11.2,31.8c1.3,1.3,1.9,3.4,2.6,5.2
		c4.7,11.7,8.3,24,14.2,35c10,18.8,23.6,27.3,42.1,27.3c4.4,0,9-0.5,13.9-1.4c13.9-2.6,23.5-11.4,29.7-23.2
		c6.3-12.2,10.7-25.3,16-38.1c0.6-1.5,0.9-3.4,2-4.4c6.1-6,9.1-13.5,10.4-21.7c1.1-6.8,3.6-13.9-3-19.6c-0.4-0.3-0.4-1.3-0.3-1.9
		c0.4-4.1,1-8.2,1.5-12.6c3.7,0,7.2,0,10.6,0c2.1,0,4.1,0,6.2,0c5.9-0.1,7.8-2.1,7.9-8.3c0-6.5-1.9-8.7-8-8.8c-2.2,0-4.4,0-6.6,0
		c-3.8,0-7.6,0-11.5,0c-2.4-12-4.7-23.5-7.2-35.1c-1.7-8.3-6.8-14-14.4-14.6c-18.3-1.4-36.5-2.7-54.8-3C83.7,0,83.2,0,82.8,0L82.8,0
		z M38.8,86.3c-3.8,0-5.2-1.3-5.4-5c-0.2-4.6-0.7-6.3-1.2-11.5c41.1,0,81.2-0.1,122.4-0.1c-0.6,5.9-1,8.8-2.1,14.4
		c-0.2,1-3.1,2-4.7,2c-8.2,0.1-16.5,0.1-24.7,0.1c-6.6,0-13.2,0-19.8,0c-11,0-22,0-33,0c-10.5,0-20.9,0-31.4,0.1
		C38.9,86.3,38.8,86.3,38.8,86.3L38.8,86.3z M83.1,133.5c1.1,0,2.3-0.9,3.5-1.3c-0.7-0.9-1.1-2.4-2-2.7c-3.4-1.3-1.9-2.8-0.9-5
		c1.6-3.7,3.2-7.5,3.9-11.4c0.8-4.7,0-9.7,0.9-14.4c0.6-3,3.1-8.1,4.7-8.1c0,0,0,0,0.1,0c4.4,0,4.6,4.8,5,8.3
		c0.5,4.3,0,8.7,0.8,12.9c0.7,4.3,2.2,8.5,3.8,12.5c1,2.4,2.6,4.1-1.3,5.2c-0.7,0.2-1.1,1.6-1.7,2.5c1.1,0.5,2.1,1.5,3.2,1.5
		c0,0,0.1,0,0.1,0c5-0.3,7.4-6,3.9-10.1c-4.5-5.2-3.8-10.9-3.2-17.3c7.9,13.1,18.1,21.7,33.3,21.7c2.2,0,4.5-0.2,6.9-0.6
		c-1.1,3.8-1.6,7-2.9,9.9c-5,10.8-9.5,22-15.7,32.1c-6.5,10.6-16.9,14.6-29.6,15.4c-1.2,0.1-2.3,0.1-3.4,0.1
		c-17.9,0-29.6-8.9-37.3-24.6c-5.1-10.2-8.9-21-13.9-33c2.6,0.4,5.2,0.6,7.5,0.6c15.9,0,26.2-8.3,33.9-21.6c0.7,6.3,1.5,12-3.1,17.2
		c-3.5,3.9-1.5,9.3,3.2,10.1C82.9,133.5,83,133.5,83.1,133.5L83.1,133.5z"/>
</g>
<path d="M93.3,151.6c-5.8,0-11.7-0.1-17.5,0.1c-1.1,0-2.2,1.4-3.4,2.1c1.1,0.7,2.2,2.1,3.3,2.1c11.7,0.1,23.3,0.1,35,0
	c1.1,0,2.2-1.3,3.3-2c-1.1-0.7-2.2-2.1-3.3-2.1C105,151.5,99.2,151.6,93.3,151.6z"/>
<path d="M67.3,135.1c-0.7,0.8-2.1,1.5-2.1,2.3c-0.2,4-0.1,7.9-0.1,11.9s-0.1,7.9,0.1,11.9c0,0.8,1.4,1.5,2.1,2.3
	c0.7-0.8,2.1-1.5,2.1-2.3c0.2-7.9,0.2-15.9,0-23.8C69.3,136.6,68,135.8,67.3,135.1z"/>
<path d="M119.5,135.1c-0.7,0.8-2.1,1.5-2.1,2.3c-0.2,4-0.1,7.9-0.1,11.9s-0.1,7.9,0.1,11.9c0,0.8,1.4,1.5,2.1,2.3
	c0.7-0.8,2.1-1.5,2.1-2.3c0.2-7.9,0.2-15.9,0-23.8C121.5,136.6,120.2,135.8,119.5,135.1z"/>
<path d="M109.4,148.1c0,0.4,1.4,0.8,2.1,1.2c0.7-0.4,2.1-0.8,2.1-1.1c0.2-4.1,0.2-8.1,0-12.2c0-0.4-1.3-0.8-2-1.2
	c-0.7,0.4-2.1,0.8-2.1,1.2c-0.2,2-0.1,4.1-0.1,6.1C109.3,144,109.2,146,109.4,148.1z"/>
<path d="M103.1,148.1c0,0.4,1.4,0.8,2.1,1.2c0.7-0.4,2.1-0.8,2.1-1.1c0.2-4.1,0.2-8.1,0-12.2c0-0.4-1.3-0.8-2-1.2
	c-0.7,0.4-2.1,0.8-2.1,1.2c-0.2,2-0.1,4.1-0.1,6.1C103,144,102.9,146,103.1,148.1z"/>
<path d="M96.6,148.1c0,0.4,1.4,0.8,2.1,1.2c0.7-0.4,2.1-0.8,2.1-1.1c0.2-4.1,0.2-8.1,0-12.2c0-0.4-1.3-0.8-2-1.2
	c-0.7,0.4-2.1,0.8-2.1,1.2c-0.2,2-0.1,4.1-0.1,6.1C96.5,144,96.4,146,96.6,148.1z"/>
<path d="M91.2,148.1c0,0.4,1.4,0.8,2.1,1.2c0.7-0.4,2.1-0.8,2.1-1.1c0.2-4.1,0.2-8.1,0-12.2c0-0.4-1.3-0.8-2-1.2
	c-0.7,0.4-2.1,0.8-2.1,1.2c-0.2,2-0.1,4.1-0.1,6.1C91.1,144,91,146,91.2,148.1z"/>
<path d="M85.4,148.1c0,0.4,1.4,0.8,2.1,1.2c0.7-0.4,2.1-0.8,2.1-1.1c0.2-4.1,0.2-8.1,0-12.2c0-0.4-1.3-0.8-2-1.2
	c-0.7,0.4-2.1,0.8-2.1,1.2c-0.2,2-0.1,4.1-0.1,6.1C85.3,144,85.2,146,85.4,148.1z"/>
<path d="M79,148.1c0,0.4,1.4,0.8,2.1,1.2c0.7-0.4,2.1-0.8,2.1-1.1c0.2-4.1,0.2-8.1,0-12.2c0-0.4-1.3-0.8-2-1.2
	c-0.7,0.4-2.1,0.8-2.1,1.2c-0.2,2-0.1,4.1-0.1,6.1C78.9,144,78.8,146,79,148.1z"/>
<path d="M72.6,148.1c0,0.4,1.4,0.8,2.1,1.2c0.7-0.4,2.1-0.8,2.1-1.1c0.2-4.1,0.2-8.1,0-12.2c0-0.4-1.3-0.8-2-1.2
	c-0.7,0.4-2.1,0.8-2.1,1.2c-0.2,2-0.1,4.1-0.1,6.1C72.5,144,72.4,146,72.6,148.1z"/>
</svg>
